<mxfile host="app.diagrams.net" modified="2024-05-18T18:29:36.553Z" agent="Mozilla/5.0 (X11; Linux x86_64) AppleWebKit/537.36 (KHTML, like Gecko) Chrome/119.0.0.0 Safari/537.36" etag="avmeu3r8WZDtCsu9y_Sr" version="24.3.1" type="google">
  <diagram name="Страница — 1" id="L74SnRRmwq9o9S75lbGC">
    <mxGraphModel grid="1" page="1" gridSize="10" guides="1" tooltips="1" connect="1" arrows="1" fold="1" pageScale="1" pageWidth="827" pageHeight="1169" math="0" shadow="0">
      <root>
        <mxCell id="0" />
        <mxCell id="1" parent="0" />
        <mxCell id="QaenVO4siS9VH7mCYYPl-3" value="" style="shape=mxgraph.cisco.routers.wireless_router;sketch=0;html=1;pointerEvents=1;dashed=0;fillColor=#036897;strokeColor=#ffffff;strokeWidth=2;verticalLabelPosition=bottom;verticalAlign=top;align=center;outlineConnect=0;" vertex="1" parent="1">
          <mxGeometry x="-60" y="1000" width="50" height="40" as="geometry" />
        </mxCell>
        <mxCell id="QaenVO4siS9VH7mCYYPl-4" value="" style="shape=mxgraph.cisco.switches.workgroup_switch;sketch=0;html=1;pointerEvents=1;dashed=0;fillColor=#036897;strokeColor=#ffffff;strokeWidth=2;verticalLabelPosition=bottom;verticalAlign=top;align=center;outlineConnect=0;" vertex="1" parent="1">
          <mxGeometry x="20" y="820" width="60" height="30" as="geometry" />
        </mxCell>
        <mxCell id="QaenVO4siS9VH7mCYYPl-8" value="" style="group;verticalAlign=top;fontFamily=Times New Roman;" vertex="1" connectable="0" parent="1">
          <mxGeometry x="410" y="250" width="144" height="70" as="geometry" />
        </mxCell>
        <mxCell id="QaenVO4siS9VH7mCYYPl-6" value="&lt;p style=&quot;line-height: 160%;&quot;&gt;&lt;font style=&quot;font-size: 16px;&quot; face=&quot;Times New Roman&quot;&gt;Internet&lt;/font&gt;&lt;/p&gt;" style="whiteSpace=wrap;html=1;shape=mxgraph.basic.cloud_callout;align=center;" vertex="1" parent="QaenVO4siS9VH7mCYYPl-8">
          <mxGeometry x="6.127659574468084" width="137.87234042553192" height="70" as="geometry" />
        </mxCell>
        <mxCell id="QaenVO4siS9VH7mCYYPl-7" value="" style="rounded=0;whiteSpace=wrap;html=1;fontColor=#FFFFFF;strokeColor=#FFFFFF;" vertex="1" parent="QaenVO4siS9VH7mCYYPl-8">
          <mxGeometry y="52.5" width="45.95744680851063" height="17.5" as="geometry" />
        </mxCell>
        <mxCell id="QaenVO4siS9VH7mCYYPl-14" value="" style="shape=mxgraph.cisco.routers.router;sketch=0;html=1;pointerEvents=1;dashed=0;fillColor=#036897;strokeColor=#ffffff;strokeWidth=2;verticalLabelPosition=bottom;verticalAlign=top;align=center;outlineConnect=0;" vertex="1" parent="1">
          <mxGeometry x="341" y="350" width="50" height="30" as="geometry" />
        </mxCell>
        <mxCell id="QaenVO4siS9VH7mCYYPl-16" value="" style="shape=mxgraph.cisco.switches.workgroup_switch;sketch=0;html=1;pointerEvents=1;dashed=0;fillColor=#036897;strokeColor=#ffffff;strokeWidth=2;verticalLabelPosition=bottom;verticalAlign=top;align=center;outlineConnect=0;" vertex="1" parent="1">
          <mxGeometry x="180" y="820" width="60" height="30" as="geometry" />
        </mxCell>
        <mxCell id="QaenVO4siS9VH7mCYYPl-17" value="" style="shape=mxgraph.cisco.switches.workgroup_switch;sketch=0;html=1;pointerEvents=1;dashed=0;fillColor=#036897;strokeColor=#ffffff;strokeWidth=2;verticalLabelPosition=bottom;verticalAlign=top;align=center;outlineConnect=0;" vertex="1" parent="1">
          <mxGeometry x="340" y="820" width="60" height="30" as="geometry" />
        </mxCell>
        <mxCell id="QaenVO4siS9VH7mCYYPl-18" value="" style="shape=mxgraph.cisco.switches.workgroup_switch;sketch=0;html=1;pointerEvents=1;dashed=0;fillColor=#036897;strokeColor=#ffffff;strokeWidth=2;verticalLabelPosition=bottom;verticalAlign=top;align=center;outlineConnect=0;" vertex="1" parent="1">
          <mxGeometry x="500" y="820" width="60" height="30" as="geometry" />
        </mxCell>
        <mxCell id="QaenVO4siS9VH7mCYYPl-19" value="" style="shape=mxgraph.cisco.switches.workgroup_switch;sketch=0;html=1;pointerEvents=1;dashed=0;fillColor=#036897;strokeColor=#ffffff;strokeWidth=2;verticalLabelPosition=bottom;verticalAlign=top;align=center;outlineConnect=0;" vertex="1" parent="1">
          <mxGeometry x="670" y="820" width="60" height="30" as="geometry" />
        </mxCell>
        <mxCell id="QaenVO4siS9VH7mCYYPl-20" value="" style="shape=mxgraph.cisco.routers.wireless_router;sketch=0;html=1;pointerEvents=1;dashed=0;fillColor=#036897;strokeColor=#ffffff;strokeWidth=2;verticalLabelPosition=bottom;verticalAlign=top;align=center;outlineConnect=0;" vertex="1" parent="1">
          <mxGeometry x="790" y="997" width="50" height="40" as="geometry" />
        </mxCell>
        <mxCell id="QaenVO4siS9VH7mCYYPl-21" value="" style="shape=mxgraph.cisco.routers.wireless_router;sketch=0;html=1;pointerEvents=1;dashed=0;fillColor=#036897;strokeColor=#ffffff;strokeWidth=2;verticalLabelPosition=bottom;verticalAlign=top;align=center;outlineConnect=0;" vertex="1" parent="1">
          <mxGeometry x="430" y="957" width="50" height="40" as="geometry" />
        </mxCell>
        <mxCell id="QaenVO4siS9VH7mCYYPl-34" value="" style="endArrow=none;html=1;rounded=0;shape=link;" edge="1" parent="1" source="SH7mHOmY0YoXLgwf_8YF-17" target="mweBj8knnKhivHX_sm4Q-7">
          <mxGeometry width="50" height="50" relative="1" as="geometry">
            <mxPoint x="430" y="640" as="sourcePoint" />
            <mxPoint x="480" y="590" as="targetPoint" />
          </mxGeometry>
        </mxCell>
        <mxCell id="QaenVO4siS9VH7mCYYPl-35" value="" style="endArrow=none;html=1;rounded=0;shape=link;" edge="1" parent="1" source="mweBj8knnKhivHX_sm4Q-6" target="SH7mHOmY0YoXLgwf_8YF-17">
          <mxGeometry width="50" height="50" relative="1" as="geometry">
            <mxPoint x="210" y="600" as="sourcePoint" />
            <mxPoint x="260" y="550" as="targetPoint" />
          </mxGeometry>
        </mxCell>
        <mxCell id="QaenVO4siS9VH7mCYYPl-38" style="edgeStyle=orthogonalEdgeStyle;rounded=0;orthogonalLoop=1;jettySize=auto;html=1;exitX=0.5;exitY=1;exitDx=0;exitDy=0;exitPerimeter=0;" edge="1" parent="1" source="QaenVO4siS9VH7mCYYPl-21" target="QaenVO4siS9VH7mCYYPl-21">
          <mxGeometry relative="1" as="geometry" />
        </mxCell>
        <mxCell id="QaenVO4siS9VH7mCYYPl-40" value="" style="endArrow=none;html=1;rounded=0;shape=link;" edge="1" parent="1" source="mweBj8knnKhivHX_sm4Q-8" target="SH7mHOmY0YoXLgwf_8YF-17">
          <mxGeometry width="50" height="50" relative="1" as="geometry">
            <mxPoint x="230" y="600" as="sourcePoint" />
            <mxPoint x="280" y="550" as="targetPoint" />
          </mxGeometry>
        </mxCell>
        <mxCell id="QaenVO4siS9VH7mCYYPl-41" value="" style="endArrow=none;html=1;rounded=0;entryX=0.5;entryY=1;entryDx=0;entryDy=0;entryPerimeter=0;" edge="1" parent="1" source="QaenVO4siS9VH7mCYYPl-4" target="hCA_CuVUp_1DTXwcT2jg-3">
          <mxGeometry width="50" height="50" relative="1" as="geometry">
            <mxPoint x="-10" y="1008.7406855439642" as="sourcePoint" />
            <mxPoint x="5" y="960" as="targetPoint" />
          </mxGeometry>
        </mxCell>
        <mxCell id="QaenVO4siS9VH7mCYYPl-42" value="" style="endArrow=none;html=1;rounded=0;" edge="1" parent="1" source="QaenVO4siS9VH7mCYYPl-4" target="hCA_CuVUp_1DTXwcT2jg-2">
          <mxGeometry width="50" height="50" relative="1" as="geometry">
            <mxPoint x="-10" y="1015" as="sourcePoint" />
            <mxPoint x="-79.25" y="980" as="targetPoint" />
          </mxGeometry>
        </mxCell>
        <mxCell id="QaenVO4siS9VH7mCYYPl-43" value="" style="endArrow=none;html=1;rounded=0;" edge="1" parent="1" source="QaenVO4siS9VH7mCYYPl-3" target="QaenVO4siS9VH7mCYYPl-4">
          <mxGeometry width="50" height="50" relative="1" as="geometry">
            <mxPoint x="160" y="990" as="sourcePoint" />
            <mxPoint x="7.77173913043498" y="1000" as="targetPoint" />
          </mxGeometry>
        </mxCell>
        <mxCell id="QaenVO4siS9VH7mCYYPl-44" value="" style="endArrow=none;html=1;rounded=0;exitX=0.5;exitY=0.01;exitDx=0;exitDy=0;exitPerimeter=0;" edge="1" parent="1" source="hCA_CuVUp_1DTXwcT2jg-4" target="QaenVO4siS9VH7mCYYPl-16">
          <mxGeometry width="50" height="50" relative="1" as="geometry">
            <mxPoint x="140" y="940" as="sourcePoint" />
            <mxPoint x="310" y="840" as="targetPoint" />
          </mxGeometry>
        </mxCell>
        <mxCell id="QaenVO4siS9VH7mCYYPl-45" value="" style="endArrow=none;html=1;rounded=0;entryX=0.5;entryY=0.98;entryDx=0;entryDy=0;entryPerimeter=0;" edge="1" parent="1" source="hCA_CuVUp_1DTXwcT2jg-5" target="QaenVO4siS9VH7mCYYPl-16">
          <mxGeometry width="50" height="50" relative="1" as="geometry">
            <mxPoint x="335" y="929.9999999999999" as="sourcePoint" />
            <mxPoint x="420" y="720" as="targetPoint" />
          </mxGeometry>
        </mxCell>
        <mxCell id="QaenVO4siS9VH7mCYYPl-46" value="" style="endArrow=none;html=1;rounded=0;exitX=0.5;exitY=0.01;exitDx=0;exitDy=0;exitPerimeter=0;" edge="1" parent="1" source="hCA_CuVUp_1DTXwcT2jg-6" target="QaenVO4siS9VH7mCYYPl-17">
          <mxGeometry width="50" height="50" relative="1" as="geometry">
            <mxPoint x="380" y="780" as="sourcePoint" />
            <mxPoint x="430" y="730" as="targetPoint" />
          </mxGeometry>
        </mxCell>
        <mxCell id="QaenVO4siS9VH7mCYYPl-47" value="" style="endArrow=none;html=1;rounded=0;entryX=0.5;entryY=0.98;entryDx=0;entryDy=0;entryPerimeter=0;" edge="1" parent="1" source="hCA_CuVUp_1DTXwcT2jg-7" target="QaenVO4siS9VH7mCYYPl-17">
          <mxGeometry width="50" height="50" relative="1" as="geometry">
            <mxPoint x="508.67088607594906" y="929.9999999999999" as="sourcePoint" />
            <mxPoint x="470" y="830" as="targetPoint" />
          </mxGeometry>
        </mxCell>
        <mxCell id="QaenVO4siS9VH7mCYYPl-48" value="" style="endArrow=none;html=1;rounded=0;exitX=0.5;exitY=0.01;exitDx=0;exitDy=0;exitPerimeter=0;entryX=0.5;entryY=0.98;entryDx=0;entryDy=0;entryPerimeter=0;" edge="1" parent="1" source="hCA_CuVUp_1DTXwcT2jg-8" target="QaenVO4siS9VH7mCYYPl-18">
          <mxGeometry width="50" height="50" relative="1" as="geometry">
            <mxPoint x="400" y="800" as="sourcePoint" />
            <mxPoint x="450" y="750" as="targetPoint" />
          </mxGeometry>
        </mxCell>
        <mxCell id="QaenVO4siS9VH7mCYYPl-49" value="" style="endArrow=none;html=1;rounded=0;exitX=0.5;exitY=0.01;exitDx=0;exitDy=0;exitPerimeter=0;entryX=0.87;entryY=0.74;entryDx=0;entryDy=0;entryPerimeter=0;" edge="1" parent="1" source="hCA_CuVUp_1DTXwcT2jg-9" target="QaenVO4siS9VH7mCYYPl-18">
          <mxGeometry width="50" height="50" relative="1" as="geometry">
            <mxPoint x="410" y="810" as="sourcePoint" />
            <mxPoint x="460" y="760" as="targetPoint" />
          </mxGeometry>
        </mxCell>
        <mxCell id="QaenVO4siS9VH7mCYYPl-50" value="" style="endArrow=none;html=1;rounded=0;" edge="1" parent="1" source="hCA_CuVUp_1DTXwcT2jg-10" target="QaenVO4siS9VH7mCYYPl-19">
          <mxGeometry width="50" height="50" relative="1" as="geometry">
            <mxPoint x="330" y="880" as="sourcePoint" />
            <mxPoint x="380" y="830" as="targetPoint" />
          </mxGeometry>
        </mxCell>
        <mxCell id="QaenVO4siS9VH7mCYYPl-51" value="" style="endArrow=none;html=1;rounded=0;" edge="1" parent="1" source="QaenVO4siS9VH7mCYYPl-19" target="hCA_CuVUp_1DTXwcT2jg-11">
          <mxGeometry width="50" height="50" relative="1" as="geometry">
            <mxPoint x="340" y="890" as="sourcePoint" />
            <mxPoint x="930" y="800" as="targetPoint" />
          </mxGeometry>
        </mxCell>
        <mxCell id="QaenVO4siS9VH7mCYYPl-52" value="" style="endArrow=none;html=1;rounded=0;" edge="1" parent="1" source="QaenVO4siS9VH7mCYYPl-20" target="QaenVO4siS9VH7mCYYPl-19">
          <mxGeometry width="50" height="50" relative="1" as="geometry">
            <mxPoint x="350" y="900" as="sourcePoint" />
            <mxPoint x="400" y="850" as="targetPoint" />
          </mxGeometry>
        </mxCell>
        <mxCell id="hCA_CuVUp_1DTXwcT2jg-2" value="" style="shape=mxgraph.cisco.computers_and_peripherals.macintosh;sketch=0;html=1;pointerEvents=1;dashed=0;fillColor=#036897;strokeColor=#ffffff;strokeWidth=2;verticalLabelPosition=bottom;verticalAlign=top;align=center;outlineConnect=0;" vertex="1" parent="1">
          <mxGeometry x="-210" y="943" width="64.5" height="37" as="geometry" />
        </mxCell>
        <mxCell id="hCA_CuVUp_1DTXwcT2jg-3" value="" style="shape=mxgraph.cisco.computers_and_peripherals.macintosh;sketch=0;html=1;pointerEvents=1;dashed=0;fillColor=#036897;strokeColor=#ffffff;strokeWidth=2;verticalLabelPosition=bottom;verticalAlign=top;align=center;outlineConnect=0;" vertex="1" parent="1">
          <mxGeometry x="-164.5" y="990" width="64.5" height="37" as="geometry" />
        </mxCell>
        <mxCell id="hCA_CuVUp_1DTXwcT2jg-4" value="" style="shape=mxgraph.cisco.computers_and_peripherals.macintosh;sketch=0;html=1;pointerEvents=1;dashed=0;fillColor=#036897;strokeColor=#ffffff;strokeWidth=2;verticalLabelPosition=bottom;verticalAlign=top;align=center;outlineConnect=0;" vertex="1" parent="1">
          <mxGeometry x="60" y="960" width="64.5" height="37" as="geometry" />
        </mxCell>
        <mxCell id="hCA_CuVUp_1DTXwcT2jg-5" value="" style="shape=mxgraph.cisco.computers_and_peripherals.macintosh;sketch=0;html=1;pointerEvents=1;dashed=0;fillColor=#036897;strokeColor=#ffffff;strokeWidth=2;verticalLabelPosition=bottom;verticalAlign=top;align=center;outlineConnect=0;" vertex="1" parent="1">
          <mxGeometry x="150" y="961.5" width="64.5" height="37" as="geometry" />
        </mxCell>
        <mxCell id="hCA_CuVUp_1DTXwcT2jg-6" value="" style="shape=mxgraph.cisco.computers_and_peripherals.macintosh;sketch=0;html=1;pointerEvents=1;dashed=0;fillColor=#036897;strokeColor=#ffffff;strokeWidth=2;verticalLabelPosition=bottom;verticalAlign=top;align=center;outlineConnect=0;" vertex="1" parent="1">
          <mxGeometry x="260" y="963" width="64.5" height="37" as="geometry" />
        </mxCell>
        <mxCell id="hCA_CuVUp_1DTXwcT2jg-7" value="" style="shape=mxgraph.cisco.computers_and_peripherals.macintosh;sketch=0;html=1;pointerEvents=1;dashed=0;fillColor=#036897;strokeColor=#ffffff;strokeWidth=2;verticalLabelPosition=bottom;verticalAlign=top;align=center;outlineConnect=0;" vertex="1" parent="1">
          <mxGeometry x="346" y="963" width="64.5" height="37" as="geometry" />
        </mxCell>
        <mxCell id="hCA_CuVUp_1DTXwcT2jg-8" value="" style="shape=mxgraph.cisco.computers_and_peripherals.macintosh;sketch=0;html=1;pointerEvents=1;dashed=0;fillColor=#036897;strokeColor=#ffffff;strokeWidth=2;verticalLabelPosition=bottom;verticalAlign=top;align=center;outlineConnect=0;" vertex="1" parent="1">
          <mxGeometry x="530" y="963" width="64.5" height="37" as="geometry" />
        </mxCell>
        <mxCell id="hCA_CuVUp_1DTXwcT2jg-9" value="" style="shape=mxgraph.cisco.computers_and_peripherals.macintosh;sketch=0;html=1;pointerEvents=1;dashed=0;fillColor=#036897;strokeColor=#ffffff;strokeWidth=2;verticalLabelPosition=bottom;verticalAlign=top;align=center;outlineConnect=0;" vertex="1" parent="1">
          <mxGeometry x="630" y="963" width="64.5" height="37" as="geometry" />
        </mxCell>
        <mxCell id="hCA_CuVUp_1DTXwcT2jg-10" value="" style="shape=mxgraph.cisco.computers_and_peripherals.macintosh;sketch=0;html=1;pointerEvents=1;dashed=0;fillColor=#036897;strokeColor=#ffffff;strokeWidth=2;verticalLabelPosition=bottom;verticalAlign=top;align=center;outlineConnect=0;" vertex="1" parent="1">
          <mxGeometry x="954.5" y="926" width="64.5" height="37" as="geometry" />
        </mxCell>
        <mxCell id="hCA_CuVUp_1DTXwcT2jg-11" value="" style="shape=mxgraph.cisco.computers_and_peripherals.macintosh;sketch=0;html=1;pointerEvents=1;dashed=0;fillColor=#036897;strokeColor=#ffffff;strokeWidth=2;verticalLabelPosition=bottom;verticalAlign=top;align=center;outlineConnect=0;" vertex="1" parent="1">
          <mxGeometry x="890" y="981.5" width="64.5" height="37" as="geometry" />
        </mxCell>
        <mxCell id="SH7mHOmY0YoXLgwf_8YF-3" value="" style="endArrow=none;html=1;rounded=0;" edge="1" parent="1" source="QaenVO4siS9VH7mCYYPl-21" target="QaenVO4siS9VH7mCYYPl-17">
          <mxGeometry width="50" height="50" relative="1" as="geometry">
            <mxPoint x="522" y="943" as="sourcePoint" />
            <mxPoint x="490" y="849" as="targetPoint" />
          </mxGeometry>
        </mxCell>
        <mxCell id="SH7mHOmY0YoXLgwf_8YF-6" value="" style="shape=mxgraph.cisco.switches.workgroup_switch;sketch=0;html=1;pointerEvents=1;dashed=0;fillColor=#036897;strokeColor=#ffffff;strokeWidth=2;verticalLabelPosition=bottom;verticalAlign=top;align=center;outlineConnect=0;" vertex="1" parent="1">
          <mxGeometry x="90" y="577" width="60" height="30" as="geometry" />
        </mxCell>
        <mxCell id="SH7mHOmY0YoXLgwf_8YF-9" value="" style="endArrow=none;html=1;rounded=0;shape=link;" edge="1" parent="1" source="SH7mHOmY0YoXLgwf_8YF-17" target="SH7mHOmY0YoXLgwf_8YF-6">
          <mxGeometry width="50" height="50" relative="1" as="geometry">
            <mxPoint x="850" y="630" as="sourcePoint" />
            <mxPoint x="900" y="580" as="targetPoint" />
          </mxGeometry>
        </mxCell>
        <mxCell id="SH7mHOmY0YoXLgwf_8YF-10" value="" style="shape=mxgraph.cisco.servers.file_server;sketch=0;html=1;pointerEvents=1;dashed=0;fillColor=#036897;strokeColor=#ffffff;strokeWidth=2;verticalLabelPosition=bottom;verticalAlign=top;align=center;outlineConnect=0;" vertex="1" parent="1">
          <mxGeometry x="-17.5" y="470" width="43" height="58" as="geometry" />
        </mxCell>
        <mxCell id="SH7mHOmY0YoXLgwf_8YF-11" value="" style="shape=mxgraph.cisco.servers.file_server;sketch=0;html=1;pointerEvents=1;dashed=0;fillColor=#036897;strokeColor=#ffffff;strokeWidth=2;verticalLabelPosition=bottom;verticalAlign=top;align=center;outlineConnect=0;" vertex="1" parent="1">
          <mxGeometry x="105.5" y="450" width="43" height="58" as="geometry" />
        </mxCell>
        <mxCell id="SH7mHOmY0YoXLgwf_8YF-12" value="" style="shape=mxgraph.cisco.servers.file_server;sketch=0;html=1;pointerEvents=1;dashed=0;fillColor=#036897;strokeColor=#ffffff;strokeWidth=2;verticalLabelPosition=bottom;verticalAlign=top;align=center;outlineConnect=0;" vertex="1" parent="1">
          <mxGeometry x="-84.5" y="542" width="43" height="58" as="geometry" />
        </mxCell>
        <mxCell id="SH7mHOmY0YoXLgwf_8YF-13" value="" style="endArrow=none;html=1;rounded=0;" edge="1" parent="1" source="SH7mHOmY0YoXLgwf_8YF-6" target="SH7mHOmY0YoXLgwf_8YF-10">
          <mxGeometry width="50" height="50" relative="1" as="geometry">
            <mxPoint x="-7" y="615" as="sourcePoint" />
            <mxPoint x="43" y="565" as="targetPoint" />
          </mxGeometry>
        </mxCell>
        <mxCell id="SH7mHOmY0YoXLgwf_8YF-14" value="" style="endArrow=none;html=1;rounded=0;" edge="1" parent="1" source="SH7mHOmY0YoXLgwf_8YF-6" target="SH7mHOmY0YoXLgwf_8YF-11">
          <mxGeometry width="50" height="50" relative="1" as="geometry">
            <mxPoint x="-37" y="605" as="sourcePoint" />
            <mxPoint x="13" y="555" as="targetPoint" />
          </mxGeometry>
        </mxCell>
        <mxCell id="SH7mHOmY0YoXLgwf_8YF-15" value="" style="endArrow=none;html=1;rounded=0;" edge="1" parent="1" source="SH7mHOmY0YoXLgwf_8YF-6" target="SH7mHOmY0YoXLgwf_8YF-12">
          <mxGeometry width="50" height="50" relative="1" as="geometry">
            <mxPoint x="-27" y="615" as="sourcePoint" />
            <mxPoint x="23" y="565" as="targetPoint" />
          </mxGeometry>
        </mxCell>
        <mxCell id="SH7mHOmY0YoXLgwf_8YF-17" value="" style="shape=mxgraph.cisco.switches.workgroup_switch;sketch=0;html=1;pointerEvents=1;dashed=0;fillColor=#036897;strokeColor=#ffffff;strokeWidth=2;verticalLabelPosition=bottom;verticalAlign=top;align=center;outlineConnect=0;" vertex="1" parent="1">
          <mxGeometry x="336" y="560" width="60" height="30" as="geometry" />
        </mxCell>
        <mxCell id="SH7mHOmY0YoXLgwf_8YF-28" value="" style="endArrow=none;html=1;rounded=0;shape=link;" edge="1" parent="1" source="SH7mHOmY0YoXLgwf_8YF-17" target="mweBj8knnKhivHX_sm4Q-1">
          <mxGeometry width="50" height="50" relative="1" as="geometry">
            <mxPoint x="230" y="550" as="sourcePoint" />
            <mxPoint x="366" y="500" as="targetPoint" />
          </mxGeometry>
        </mxCell>
        <mxCell id="SH7mHOmY0YoXLgwf_8YF-29" value="" style="endArrow=none;html=1;rounded=0;shape=link;" edge="1" parent="1" source="mweBj8knnKhivHX_sm4Q-1" target="QaenVO4siS9VH7mCYYPl-14">
          <mxGeometry width="50" height="50" relative="1" as="geometry">
            <mxPoint x="366" y="440" as="sourcePoint" />
            <mxPoint x="280" y="430" as="targetPoint" />
          </mxGeometry>
        </mxCell>
        <mxCell id="mweBj8knnKhivHX_sm4Q-1" value="" style="shape=mxgraph.cisco.controllers_and_modules.firewall_service_module_(fwsm);sketch=0;html=1;pointerEvents=1;dashed=0;fillColor=#036897;strokeColor=#ffffff;strokeWidth=2;verticalLabelPosition=bottom;verticalAlign=top;align=center;outlineConnect=0;" vertex="1" parent="1">
          <mxGeometry x="340.5" y="428" width="50.5" height="72" as="geometry" />
        </mxCell>
        <mxCell id="mweBj8knnKhivHX_sm4Q-6" value="" style="shape=mxgraph.cisco.switches.workgroup_switch;sketch=0;html=1;pointerEvents=1;dashed=0;fillColor=#036897;strokeColor=#ffffff;strokeWidth=2;verticalLabelPosition=bottom;verticalAlign=top;align=center;outlineConnect=0;" vertex="1" parent="1">
          <mxGeometry x="204.5" y="650" width="60" height="30" as="geometry" />
        </mxCell>
        <mxCell id="mweBj8knnKhivHX_sm4Q-7" value="" style="shape=mxgraph.cisco.switches.workgroup_switch;sketch=0;html=1;pointerEvents=1;dashed=0;fillColor=#036897;strokeColor=#ffffff;strokeWidth=2;verticalLabelPosition=bottom;verticalAlign=top;align=center;outlineConnect=0;" vertex="1" parent="1">
          <mxGeometry x="335.75" y="690" width="60" height="30" as="geometry" />
        </mxCell>
        <mxCell id="mweBj8knnKhivHX_sm4Q-8" value="" style="shape=mxgraph.cisco.switches.workgroup_switch;sketch=0;html=1;pointerEvents=1;dashed=0;fillColor=#036897;strokeColor=#ffffff;strokeWidth=2;verticalLabelPosition=bottom;verticalAlign=top;align=center;outlineConnect=0;" vertex="1" parent="1">
          <mxGeometry x="470" y="650" width="60" height="30" as="geometry" />
        </mxCell>
        <mxCell id="mweBj8knnKhivHX_sm4Q-10" value="" style="endArrow=none;html=1;rounded=0;shape=link;" edge="1" parent="1" source="mweBj8knnKhivHX_sm4Q-6" target="mweBj8knnKhivHX_sm4Q-8">
          <mxGeometry width="50" height="50" relative="1" as="geometry">
            <mxPoint x="-190" y="700" as="sourcePoint" />
            <mxPoint x="-140" y="650" as="targetPoint" />
          </mxGeometry>
        </mxCell>
        <mxCell id="mweBj8knnKhivHX_sm4Q-11" value="" style="endArrow=none;html=1;rounded=0;shape=link;" edge="1" parent="1" source="mweBj8knnKhivHX_sm4Q-7" target="mweBj8knnKhivHX_sm4Q-6">
          <mxGeometry width="50" height="50" relative="1" as="geometry">
            <mxPoint x="-160" y="640" as="sourcePoint" />
            <mxPoint x="-110" y="590" as="targetPoint" />
          </mxGeometry>
        </mxCell>
        <mxCell id="mweBj8knnKhivHX_sm4Q-12" value="" style="endArrow=none;html=1;rounded=0;shape=link;" edge="1" parent="1" source="mweBj8knnKhivHX_sm4Q-7" target="mweBj8knnKhivHX_sm4Q-8">
          <mxGeometry width="50" height="50" relative="1" as="geometry">
            <mxPoint x="-130" y="710" as="sourcePoint" />
            <mxPoint x="-80" y="660" as="targetPoint" />
          </mxGeometry>
        </mxCell>
        <mxCell id="mweBj8knnKhivHX_sm4Q-23" value="&lt;font style=&quot;font-size: 19px;&quot;&gt;ISP1&lt;/font&gt;" style="text;html=1;align=center;verticalAlign=middle;resizable=0;points=[];autosize=1;strokeColor=none;fillColor=none;" vertex="1" parent="1">
          <mxGeometry x="442" y="345" width="70" height="40" as="geometry" />
        </mxCell>
        <mxCell id="mweBj8knnKhivHX_sm4Q-24" value="&lt;font style=&quot;font-size: 19px;&quot;&gt;Fw1&lt;/font&gt;" style="text;html=1;align=center;verticalAlign=middle;resizable=0;points=[];autosize=1;strokeColor=none;fillColor=none;" vertex="1" parent="1">
          <mxGeometry x="445" y="444" width="60" height="40" as="geometry" />
        </mxCell>
        <mxCell id="mweBj8knnKhivHX_sm4Q-25" value="&lt;font style=&quot;font-size: 19px;&quot;&gt;Sw1&lt;/font&gt;" style="text;html=1;align=center;verticalAlign=middle;resizable=0;points=[];autosize=1;strokeColor=none;fillColor=none;" vertex="1" parent="1">
          <mxGeometry x="457" y="550" width="60" height="40" as="geometry" />
        </mxCell>
        <mxCell id="mweBj8knnKhivHX_sm4Q-27" value="&lt;font style=&quot;font-size: 19px;&quot;&gt;Sw3&lt;/font&gt;" style="text;html=1;align=center;verticalAlign=middle;resizable=0;points=[];autosize=1;strokeColor=none;fillColor=none;" vertex="1" parent="1">
          <mxGeometry x="145" y="645" width="60" height="40" as="geometry" />
        </mxCell>
        <mxCell id="mweBj8knnKhivHX_sm4Q-28" value="&lt;font style=&quot;font-size: 19px;&quot;&gt;Sw4&lt;/font&gt;" style="text;html=1;align=center;verticalAlign=middle;resizable=0;points=[];autosize=1;strokeColor=none;fillColor=none;" vertex="1" parent="1">
          <mxGeometry x="395" y="710" width="60" height="40" as="geometry" />
        </mxCell>
        <mxCell id="mweBj8knnKhivHX_sm4Q-29" value="&lt;font style=&quot;font-size: 19px;&quot;&gt;Sw5&lt;/font&gt;" style="text;html=1;align=center;verticalAlign=middle;resizable=0;points=[];autosize=1;strokeColor=none;fillColor=none;" vertex="1" parent="1">
          <mxGeometry x="440" y="695" width="60" height="40" as="geometry" />
        </mxCell>
        <mxCell id="mweBj8knnKhivHX_sm4Q-30" value="&lt;font style=&quot;font-size: 19px;&quot;&gt;Sw2&lt;/font&gt;" style="text;html=1;align=center;verticalAlign=middle;resizable=0;points=[];autosize=1;strokeColor=none;fillColor=none;" vertex="1" parent="1">
          <mxGeometry x="75" y="625" width="60" height="40" as="geometry" />
        </mxCell>
        <mxCell id="mweBj8knnKhivHX_sm4Q-31" value="&lt;font style=&quot;font-size: 19px;&quot;&gt;Sw6&lt;/font&gt;" style="text;html=1;align=center;verticalAlign=middle;resizable=0;points=[];autosize=1;strokeColor=none;fillColor=none;" vertex="1" parent="1">
          <mxGeometry x="69.5" y="820" width="60" height="40" as="geometry" />
        </mxCell>
        <mxCell id="mweBj8knnKhivHX_sm4Q-32" value="&lt;font style=&quot;font-size: 19px;&quot;&gt;Sw7&lt;/font&gt;" style="text;html=1;align=center;verticalAlign=middle;resizable=0;points=[];autosize=1;strokeColor=none;fillColor=none;" vertex="1" parent="1">
          <mxGeometry x="230.75" y="805" width="60" height="40" as="geometry" />
        </mxCell>
        <mxCell id="mweBj8knnKhivHX_sm4Q-33" value="&lt;font style=&quot;font-size: 19px;&quot;&gt;Sw8&lt;/font&gt;" style="text;html=1;align=center;verticalAlign=middle;resizable=0;points=[];autosize=1;strokeColor=none;fillColor=none;" vertex="1" parent="1">
          <mxGeometry x="390" y="805" width="60" height="40" as="geometry" />
        </mxCell>
        <mxCell id="mweBj8knnKhivHX_sm4Q-34" value="&lt;font style=&quot;font-size: 19px;&quot;&gt;Sw9&lt;/font&gt;" style="text;html=1;align=center;verticalAlign=middle;resizable=0;points=[];autosize=1;strokeColor=none;fillColor=none;" vertex="1" parent="1">
          <mxGeometry x="555" y="805" width="60" height="40" as="geometry" />
        </mxCell>
        <mxCell id="mweBj8knnKhivHX_sm4Q-35" value="&lt;font style=&quot;font-size: 19px;&quot;&gt;Sw10&lt;/font&gt;" style="text;html=1;align=center;verticalAlign=middle;resizable=0;points=[];autosize=1;strokeColor=none;fillColor=none;" vertex="1" parent="1">
          <mxGeometry x="720" y="800" width="70" height="40" as="geometry" />
        </mxCell>
        <mxCell id="mweBj8knnKhivHX_sm4Q-36" value="&lt;font style=&quot;font-size: 19px;&quot;&gt;SRV1&lt;/font&gt;" style="text;html=1;align=center;verticalAlign=middle;resizable=0;points=[];autosize=1;strokeColor=none;fillColor=none;" vertex="1" parent="1">
          <mxGeometry x="-154.5" y="595" width="70" height="40" as="geometry" />
        </mxCell>
        <mxCell id="mweBj8knnKhivHX_sm4Q-37" value="&lt;font style=&quot;font-size: 19px;&quot;&gt;SRV2&lt;/font&gt;" style="text;html=1;align=center;verticalAlign=middle;resizable=0;points=[];autosize=1;strokeColor=none;fillColor=none;" vertex="1" parent="1">
          <mxGeometry x="-60" y="435" width="70" height="40" as="geometry" />
        </mxCell>
        <mxCell id="mweBj8knnKhivHX_sm4Q-38" value="&lt;font style=&quot;font-size: 19px;&quot;&gt;SRV3&lt;/font&gt;" style="text;html=1;align=center;verticalAlign=middle;resizable=0;points=[];autosize=1;strokeColor=none;fillColor=none;" vertex="1" parent="1">
          <mxGeometry x="143.5" y="435" width="70" height="40" as="geometry" />
        </mxCell>
        <mxCell id="mweBj8knnKhivHX_sm4Q-39" value="&lt;font style=&quot;font-size: 14px;&quot;&gt;PC1&lt;/font&gt;" style="text;html=1;align=center;verticalAlign=middle;resizable=0;points=[];autosize=1;strokeColor=none;fillColor=none;" vertex="1" parent="1">
          <mxGeometry x="-214.5" y="981.5" width="50" height="30" as="geometry" />
        </mxCell>
        <mxCell id="mweBj8knnKhivHX_sm4Q-40" value="&lt;font style=&quot;font-size: 14px;&quot;&gt;PC9&lt;/font&gt;" style="text;html=1;align=center;verticalAlign=middle;resizable=0;points=[];autosize=1;strokeColor=none;fillColor=none;" vertex="1" parent="1">
          <mxGeometry x="-180" y="1027" width="50" height="30" as="geometry" />
        </mxCell>
        <mxCell id="mweBj8knnKhivHX_sm4Q-41" value="&lt;font style=&quot;font-size: 14px;&quot;&gt;WAP1&lt;/font&gt;" style="text;html=1;align=center;verticalAlign=middle;resizable=0;points=[];autosize=1;strokeColor=none;fillColor=none;" vertex="1" parent="1">
          <mxGeometry x="-65" y="1037" width="60" height="30" as="geometry" />
        </mxCell>
        <mxCell id="mweBj8knnKhivHX_sm4Q-42" value="&lt;font style=&quot;font-size: 14px;&quot;&gt;WAP2&lt;/font&gt;" style="text;html=1;align=center;verticalAlign=middle;resizable=0;points=[];autosize=1;strokeColor=none;fillColor=none;" vertex="1" parent="1">
          <mxGeometry x="425" y="1002" width="60" height="30" as="geometry" />
        </mxCell>
        <mxCell id="mweBj8knnKhivHX_sm4Q-43" value="&lt;font style=&quot;font-size: 14px;&quot;&gt;WAP3&lt;/font&gt;" style="text;html=1;align=center;verticalAlign=middle;resizable=0;points=[];autosize=1;strokeColor=none;fillColor=none;" vertex="1" parent="1">
          <mxGeometry x="785" y="1037" width="60" height="30" as="geometry" />
        </mxCell>
        <mxCell id="mweBj8knnKhivHX_sm4Q-44" value="&lt;font style=&quot;font-size: 14px;&quot;&gt;PC1&lt;/font&gt;" style="text;html=1;align=center;verticalAlign=middle;resizable=0;points=[];autosize=1;strokeColor=none;fillColor=none;" vertex="1" parent="1">
          <mxGeometry x="67.25" y="1002" width="50" height="30" as="geometry" />
        </mxCell>
        <mxCell id="mweBj8knnKhivHX_sm4Q-45" value="&lt;font style=&quot;font-size: 14px;&quot;&gt;PC1&lt;/font&gt;" style="text;html=1;align=center;verticalAlign=middle;resizable=0;points=[];autosize=1;strokeColor=none;fillColor=none;" vertex="1" parent="1">
          <mxGeometry x="264.5" y="1005" width="50" height="30" as="geometry" />
        </mxCell>
        <mxCell id="mweBj8knnKhivHX_sm4Q-46" value="&lt;font style=&quot;font-size: 14px;&quot;&gt;PC1&lt;/font&gt;" style="text;html=1;align=center;verticalAlign=middle;resizable=0;points=[];autosize=1;strokeColor=none;fillColor=none;" vertex="1" parent="1">
          <mxGeometry x="537.25" y="1002" width="50" height="30" as="geometry" />
        </mxCell>
        <mxCell id="mweBj8knnKhivHX_sm4Q-47" value="&lt;font style=&quot;font-size: 14px;&quot;&gt;PC1&lt;/font&gt;" style="text;html=1;align=center;verticalAlign=middle;resizable=0;points=[];autosize=1;strokeColor=none;fillColor=none;" vertex="1" parent="1">
          <mxGeometry x="897.25" y="1018.5" width="50" height="30" as="geometry" />
        </mxCell>
        <mxCell id="mweBj8knnKhivHX_sm4Q-48" value="&lt;font style=&quot;font-size: 14px;&quot;&gt;PC9&lt;/font&gt;" style="text;html=1;align=center;verticalAlign=middle;resizable=0;points=[];autosize=1;strokeColor=none;fillColor=none;" vertex="1" parent="1">
          <mxGeometry x="157.25" y="1005" width="50" height="30" as="geometry" />
        </mxCell>
        <mxCell id="mweBj8knnKhivHX_sm4Q-49" value="&lt;font style=&quot;font-size: 14px;&quot;&gt;PC9&lt;/font&gt;" style="text;html=1;align=center;verticalAlign=middle;resizable=0;points=[];autosize=1;strokeColor=none;fillColor=none;" vertex="1" parent="1">
          <mxGeometry x="353.25" y="1005" width="50" height="30" as="geometry" />
        </mxCell>
        <mxCell id="mweBj8knnKhivHX_sm4Q-50" value="&lt;font style=&quot;font-size: 14px;&quot;&gt;PC9&lt;/font&gt;" style="text;html=1;align=center;verticalAlign=middle;resizable=0;points=[];autosize=1;strokeColor=none;fillColor=none;" vertex="1" parent="1">
          <mxGeometry x="637.25" y="1002" width="50" height="30" as="geometry" />
        </mxCell>
        <mxCell id="mweBj8knnKhivHX_sm4Q-51" value="&lt;font style=&quot;font-size: 14px;&quot;&gt;PC9&lt;/font&gt;" style="text;html=1;align=center;verticalAlign=middle;resizable=0;points=[];autosize=1;strokeColor=none;fillColor=none;" vertex="1" parent="1">
          <mxGeometry x="969" y="967" width="50" height="30" as="geometry" />
        </mxCell>
        <mxCell id="GuxH3T_5VxBRpinSBaEV-1" value="&lt;font style=&quot;font-size: 26px;&quot;&gt;ТОПОЛОГИЯ L1&lt;/font&gt;" style="text;html=1;align=center;verticalAlign=middle;resizable=0;points=[];autosize=1;strokeColor=none;fillColor=none;" vertex="1" parent="1">
          <mxGeometry x="250" y="190" width="220" height="40" as="geometry" />
        </mxCell>
        <mxCell id="JCI4BUGh_YTKmfH8SHvQ-1" value="" style="endArrow=none;html=1;rounded=0;shape=link;" edge="1" parent="1" source="QaenVO4siS9VH7mCYYPl-4" target="mweBj8knnKhivHX_sm4Q-6">
          <mxGeometry width="50" height="50" relative="1" as="geometry">
            <mxPoint x="20" y="780" as="sourcePoint" />
            <mxPoint x="70" y="730" as="targetPoint" />
          </mxGeometry>
        </mxCell>
        <mxCell id="JCI4BUGh_YTKmfH8SHvQ-2" value="" style="endArrow=none;html=1;rounded=0;shape=link;" edge="1" parent="1" source="QaenVO4siS9VH7mCYYPl-16" target="mweBj8knnKhivHX_sm4Q-7">
          <mxGeometry width="50" height="50" relative="1" as="geometry">
            <mxPoint x="210" y="790" as="sourcePoint" />
            <mxPoint x="260" y="740" as="targetPoint" />
          </mxGeometry>
        </mxCell>
        <mxCell id="JCI4BUGh_YTKmfH8SHvQ-3" value="" style="endArrow=none;html=1;rounded=0;shape=link;" edge="1" parent="1" source="QaenVO4siS9VH7mCYYPl-17" target="mweBj8knnKhivHX_sm4Q-7">
          <mxGeometry width="50" height="50" relative="1" as="geometry">
            <mxPoint x="310" y="830" as="sourcePoint" />
            <mxPoint x="360" y="780" as="targetPoint" />
          </mxGeometry>
        </mxCell>
        <mxCell id="JCI4BUGh_YTKmfH8SHvQ-4" value="" style="endArrow=none;html=1;rounded=0;shape=link;" edge="1" parent="1" source="QaenVO4siS9VH7mCYYPl-18" target="mweBj8knnKhivHX_sm4Q-8">
          <mxGeometry width="50" height="50" relative="1" as="geometry">
            <mxPoint x="450" y="800" as="sourcePoint" />
            <mxPoint x="500" y="750" as="targetPoint" />
          </mxGeometry>
        </mxCell>
        <mxCell id="JCI4BUGh_YTKmfH8SHvQ-5" value="" style="endArrow=none;html=1;rounded=0;shape=link;" edge="1" parent="1" source="QaenVO4siS9VH7mCYYPl-19" target="mweBj8knnKhivHX_sm4Q-8">
          <mxGeometry width="50" height="50" relative="1" as="geometry">
            <mxPoint x="560" y="790" as="sourcePoint" />
            <mxPoint x="610" y="740" as="targetPoint" />
          </mxGeometry>
        </mxCell>
        <mxCell id="ud0Qa6VdY__SOiLFlOuf-4" value="&lt;font style=&quot;font-size: 10px;&quot;&gt;G0/1&lt;/font&gt;" style="text;html=1;align=center;verticalAlign=middle;resizable=0;points=[];autosize=1;strokeColor=none;fillColor=none;" vertex="1" parent="1">
          <mxGeometry x="324.5" y="370" width="50" height="30" as="geometry" />
        </mxCell>
        <mxCell id="ud0Qa6VdY__SOiLFlOuf-5" value="&lt;font style=&quot;font-size: 10px;&quot;&gt;G0/2&lt;/font&gt;" style="text;html=1;align=center;verticalAlign=middle;resizable=0;points=[];autosize=1;strokeColor=none;fillColor=none;" vertex="1" parent="1">
          <mxGeometry x="360" y="370" width="50" height="30" as="geometry" />
        </mxCell>
        <mxCell id="ud0Qa6VdY__SOiLFlOuf-6" value="&lt;font style=&quot;font-size: 10px;&quot;&gt;G0/1&lt;/font&gt;" style="text;html=1;align=center;verticalAlign=middle;resizable=0;points=[];autosize=1;strokeColor=none;fillColor=none;" vertex="1" parent="1">
          <mxGeometry x="324.5" y="398" width="50" height="30" as="geometry" />
        </mxCell>
        <mxCell id="ud0Qa6VdY__SOiLFlOuf-7" value="&lt;font style=&quot;font-size: 10px;&quot;&gt;G0/2&lt;/font&gt;" style="text;html=1;align=center;verticalAlign=middle;resizable=0;points=[];autosize=1;strokeColor=none;fillColor=none;" vertex="1" parent="1">
          <mxGeometry x="360" y="398" width="50" height="30" as="geometry" />
        </mxCell>
        <mxCell id="ud0Qa6VdY__SOiLFlOuf-9" value="" style="endArrow=none;html=1;rounded=0;" edge="1" parent="1" source="QaenVO4siS9VH7mCYYPl-14" target="QaenVO4siS9VH7mCYYPl-6">
          <mxGeometry width="50" height="50" relative="1" as="geometry">
            <mxPoint x="388" y="350" as="sourcePoint" />
            <mxPoint x="433" y="320" as="targetPoint" />
          </mxGeometry>
        </mxCell>
        <mxCell id="ud0Qa6VdY__SOiLFlOuf-8" value="&lt;font style=&quot;font-size: 8px;&quot;&gt;SFP&lt;/font&gt;" style="rounded=0;whiteSpace=wrap;html=1;" vertex="1" parent="1">
          <mxGeometry x="391" y="340" width="25" height="10" as="geometry" />
        </mxCell>
        <mxCell id="ud0Qa6VdY__SOiLFlOuf-10" value="&lt;font style=&quot;font-size: 10px;&quot;&gt;G0/3&lt;/font&gt;" style="text;html=1;align=center;verticalAlign=middle;resizable=0;points=[];autosize=1;strokeColor=none;fillColor=none;" vertex="1" parent="1">
          <mxGeometry x="320" y="500" width="50" height="30" as="geometry" />
        </mxCell>
        <mxCell id="ud0Qa6VdY__SOiLFlOuf-11" value="&lt;font style=&quot;font-size: 10px;&quot;&gt;G0/4&lt;/font&gt;" style="text;html=1;align=center;verticalAlign=middle;resizable=0;points=[];autosize=1;strokeColor=none;fillColor=none;" vertex="1" parent="1">
          <mxGeometry x="364" y="500" width="50" height="30" as="geometry" />
        </mxCell>
        <mxCell id="ud0Qa6VdY__SOiLFlOuf-13" value="&lt;font style=&quot;font-size: 10px;&quot;&gt;G0/1&lt;/font&gt;" style="text;html=1;align=center;verticalAlign=middle;resizable=0;points=[];autosize=1;strokeColor=none;fillColor=none;" vertex="1" parent="1">
          <mxGeometry x="320" y="530" width="50" height="30" as="geometry" />
        </mxCell>
        <mxCell id="ud0Qa6VdY__SOiLFlOuf-14" value="&lt;font style=&quot;font-size: 10px;&quot;&gt;G0/2&lt;/font&gt;" style="text;html=1;align=center;verticalAlign=middle;resizable=0;points=[];autosize=1;strokeColor=none;fillColor=none;" vertex="1" parent="1">
          <mxGeometry x="360.5" y="530" width="50" height="30" as="geometry" />
        </mxCell>
        <mxCell id="ud0Qa6VdY__SOiLFlOuf-15" value="&lt;font style=&quot;font-size: 10px;&quot;&gt;F0/1&lt;/font&gt;" style="text;html=1;align=center;verticalAlign=middle;resizable=0;points=[];autosize=1;strokeColor=none;fillColor=none;" vertex="1" parent="1">
          <mxGeometry x="290.75" y="550" width="40" height="30" as="geometry" />
        </mxCell>
        <mxCell id="ud0Qa6VdY__SOiLFlOuf-16" value="&lt;font style=&quot;font-size: 10px;&quot;&gt;F0/2&lt;/font&gt;" style="text;html=1;align=center;verticalAlign=middle;resizable=0;points=[];autosize=1;strokeColor=none;fillColor=none;" vertex="1" parent="1">
          <mxGeometry x="290.75" y="570" width="40" height="30" as="geometry" />
        </mxCell>
        <mxCell id="ud0Qa6VdY__SOiLFlOuf-18" value="&lt;font style=&quot;font-size: 10px;&quot;&gt;F0/1&lt;/font&gt;" style="text;html=1;align=center;verticalAlign=middle;resizable=0;points=[];autosize=1;strokeColor=none;fillColor=none;" vertex="1" parent="1">
          <mxGeometry x="153.5" y="560" width="40" height="30" as="geometry" />
        </mxCell>
        <mxCell id="ud0Qa6VdY__SOiLFlOuf-19" value="&lt;font style=&quot;font-size: 10px;&quot;&gt;F0/2&lt;/font&gt;" style="text;html=1;align=center;verticalAlign=middle;resizable=0;points=[];autosize=1;strokeColor=none;fillColor=none;" vertex="1" parent="1">
          <mxGeometry x="153.5" y="585" width="40" height="30" as="geometry" />
        </mxCell>
        <mxCell id="ud0Qa6VdY__SOiLFlOuf-20" value="&lt;font style=&quot;font-size: 10px;&quot;&gt;F0/3&lt;/font&gt;" style="text;html=1;align=center;verticalAlign=middle;resizable=0;points=[];autosize=1;strokeColor=none;fillColor=none;" vertex="1" parent="1">
          <mxGeometry x="290.75" y="584" width="40" height="30" as="geometry" />
        </mxCell>
        <mxCell id="ud0Qa6VdY__SOiLFlOuf-21" value="&lt;font style=&quot;font-size: 10px;&quot;&gt;F0/4&lt;/font&gt;" style="text;html=1;align=center;verticalAlign=middle;resizable=0;points=[];autosize=1;strokeColor=none;fillColor=none;" vertex="1" parent="1">
          <mxGeometry x="314.5" y="595" width="40" height="30" as="geometry" />
        </mxCell>
        <mxCell id="ud0Qa6VdY__SOiLFlOuf-22" value="&lt;font style=&quot;font-size: 10px;&quot;&gt;F0/3&lt;/font&gt;" style="text;html=1;align=center;verticalAlign=middle;resizable=0;points=[];autosize=1;strokeColor=none;fillColor=none;" vertex="1" parent="1">
          <mxGeometry x="235.75" y="615" width="40" height="30" as="geometry" />
        </mxCell>
        <mxCell id="ud0Qa6VdY__SOiLFlOuf-23" value="&lt;font style=&quot;font-size: 10px;&quot;&gt;F0/4&lt;/font&gt;" style="text;html=1;align=center;verticalAlign=middle;resizable=0;points=[];autosize=1;strokeColor=none;fillColor=none;" vertex="1" parent="1">
          <mxGeometry x="269.5" y="625" width="40" height="30" as="geometry" />
        </mxCell>
        <mxCell id="ud0Qa6VdY__SOiLFlOuf-25" value="&lt;font style=&quot;font-size: 10px;&quot;&gt;F0/5&lt;/font&gt;" style="text;html=1;align=center;verticalAlign=middle;resizable=0;points=[];autosize=1;strokeColor=none;fillColor=none;" vertex="1" parent="1">
          <mxGeometry x="334.5" y="584" width="40" height="30" as="geometry" />
        </mxCell>
        <mxCell id="ud0Qa6VdY__SOiLFlOuf-26" value="&lt;font style=&quot;font-size: 10px;&quot;&gt;F0/6&lt;/font&gt;" style="text;html=1;align=center;verticalAlign=middle;resizable=0;points=[];autosize=1;strokeColor=none;fillColor=none;" vertex="1" parent="1">
          <mxGeometry x="360" y="590" width="40" height="30" as="geometry" />
        </mxCell>
        <mxCell id="ud0Qa6VdY__SOiLFlOuf-27" value="&lt;font style=&quot;font-size: 10px;&quot;&gt;F0/5&lt;/font&gt;" style="text;html=1;align=center;verticalAlign=middle;resizable=0;points=[];autosize=1;strokeColor=none;fillColor=none;" vertex="1" parent="1">
          <mxGeometry x="330.75" y="665" width="40" height="30" as="geometry" />
        </mxCell>
        <mxCell id="ud0Qa6VdY__SOiLFlOuf-28" value="&lt;font style=&quot;font-size: 10px;&quot;&gt;F0/6&lt;/font&gt;" style="text;html=1;align=center;verticalAlign=middle;resizable=0;points=[];autosize=1;strokeColor=none;fillColor=none;" vertex="1" parent="1">
          <mxGeometry x="360.5" y="665" width="40" height="30" as="geometry" />
        </mxCell>
        <mxCell id="ud0Qa6VdY__SOiLFlOuf-29" value="&lt;font style=&quot;font-size: 10px;&quot;&gt;F0/7&lt;/font&gt;" style="text;html=1;align=center;verticalAlign=middle;resizable=0;points=[];autosize=1;strokeColor=none;fillColor=none;" vertex="1" parent="1">
          <mxGeometry x="383.5" y="600" width="40" height="30" as="geometry" />
        </mxCell>
        <mxCell id="ud0Qa6VdY__SOiLFlOuf-30" value="&lt;font style=&quot;font-size: 10px;&quot;&gt;F0/8&lt;/font&gt;" style="text;html=1;align=center;verticalAlign=middle;resizable=0;points=[];autosize=1;strokeColor=none;fillColor=none;" vertex="1" parent="1">
          <mxGeometry x="390" y="570" width="40" height="30" as="geometry" />
        </mxCell>
        <mxCell id="ud0Qa6VdY__SOiLFlOuf-31" value="&lt;font style=&quot;font-size: 10px;&quot;&gt;F0/7&lt;/font&gt;" style="text;html=1;align=center;verticalAlign=middle;resizable=0;points=[];autosize=1;strokeColor=none;fillColor=none;" vertex="1" parent="1">
          <mxGeometry x="430" y="630" width="40" height="30" as="geometry" />
        </mxCell>
        <mxCell id="ud0Qa6VdY__SOiLFlOuf-32" value="&lt;font style=&quot;font-size: 10px;&quot;&gt;F0/8&lt;/font&gt;" style="text;html=1;align=center;verticalAlign=middle;resizable=0;points=[];autosize=1;strokeColor=none;fillColor=none;" vertex="1" parent="1">
          <mxGeometry x="455" y="614" width="40" height="30" as="geometry" />
        </mxCell>
        <mxCell id="ud0Qa6VdY__SOiLFlOuf-33" value="&lt;font style=&quot;font-size: 10px;&quot;&gt;F0/1&lt;/font&gt;" style="text;html=1;align=center;verticalAlign=middle;resizable=0;points=[];autosize=1;strokeColor=none;fillColor=none;" vertex="1" parent="1">
          <mxGeometry x="158.5" y="680" width="40" height="30" as="geometry" />
        </mxCell>
        <mxCell id="ud0Qa6VdY__SOiLFlOuf-34" value="&lt;font style=&quot;font-size: 10px;&quot;&gt;F0/2&lt;/font&gt;" style="text;html=1;align=center;verticalAlign=middle;resizable=0;points=[];autosize=1;strokeColor=none;fillColor=none;" vertex="1" parent="1">
          <mxGeometry x="200" y="685" width="40" height="30" as="geometry" />
        </mxCell>
        <mxCell id="ud0Qa6VdY__SOiLFlOuf-35" value="&lt;font style=&quot;font-size: 10px;&quot;&gt;F0/2&lt;/font&gt;" style="text;html=1;align=center;verticalAlign=middle;resizable=0;points=[];autosize=1;strokeColor=none;fillColor=none;" vertex="1" parent="1">
          <mxGeometry x="77.25" y="800" width="40" height="30" as="geometry" />
        </mxCell>
        <mxCell id="ud0Qa6VdY__SOiLFlOuf-36" value="&lt;font style=&quot;font-size: 10px;&quot;&gt;F0/1&lt;/font&gt;" style="text;html=1;align=center;verticalAlign=middle;resizable=0;points=[];autosize=1;strokeColor=none;fillColor=none;" vertex="1" parent="1">
          <mxGeometry x="50" y="775" width="40" height="30" as="geometry" />
        </mxCell>
        <mxCell id="ud0Qa6VdY__SOiLFlOuf-37" value="&lt;font style=&quot;font-size: 10px;&quot;&gt;F0/1&lt;/font&gt;" style="text;html=1;align=center;verticalAlign=middle;resizable=0;points=[];autosize=1;strokeColor=none;fillColor=none;" vertex="1" parent="1">
          <mxGeometry x="294.5" y="705" width="40" height="30" as="geometry" />
        </mxCell>
        <mxCell id="ud0Qa6VdY__SOiLFlOuf-38" value="&lt;font style=&quot;font-size: 10px;&quot;&gt;F0/1&lt;/font&gt;" style="text;html=1;align=center;verticalAlign=middle;resizable=0;points=[];autosize=1;strokeColor=none;fillColor=none;" vertex="1" parent="1">
          <mxGeometry x="195.75" y="790" width="40" height="30" as="geometry" />
        </mxCell>
        <mxCell id="ud0Qa6VdY__SOiLFlOuf-39" value="&lt;font style=&quot;font-size: 10px;&quot;&gt;F0/1&lt;/font&gt;" style="text;html=1;align=center;verticalAlign=middle;resizable=0;points=[];autosize=1;strokeColor=none;fillColor=none;" vertex="1" parent="1">
          <mxGeometry x="465" y="675" width="40" height="30" as="geometry" />
        </mxCell>
        <mxCell id="ud0Qa6VdY__SOiLFlOuf-40" value="&lt;font style=&quot;font-size: 10px;&quot;&gt;F0/1&lt;/font&gt;" style="text;html=1;align=center;verticalAlign=middle;resizable=0;points=[];autosize=1;strokeColor=none;fillColor=none;" vertex="1" parent="1">
          <mxGeometry x="485" y="790" width="40" height="30" as="geometry" />
        </mxCell>
        <mxCell id="ud0Qa6VdY__SOiLFlOuf-41" value="&lt;font style=&quot;font-size: 10px;&quot;&gt;F0/2&lt;/font&gt;" style="text;html=1;align=center;verticalAlign=middle;resizable=0;points=[];autosize=1;strokeColor=none;fillColor=none;" vertex="1" parent="1">
          <mxGeometry x="320" y="730" width="40" height="30" as="geometry" />
        </mxCell>
        <mxCell id="ud0Qa6VdY__SOiLFlOuf-42" value="&lt;font style=&quot;font-size: 10px;&quot;&gt;F0/2&lt;/font&gt;" style="text;html=1;align=center;verticalAlign=middle;resizable=0;points=[];autosize=1;strokeColor=none;fillColor=none;" vertex="1" parent="1">
          <mxGeometry x="250" y="790" width="40" height="30" as="geometry" />
        </mxCell>
        <mxCell id="ud0Qa6VdY__SOiLFlOuf-43" value="&lt;font style=&quot;font-size: 10px;&quot;&gt;F0/2&lt;/font&gt;" style="text;html=1;align=center;verticalAlign=middle;resizable=0;points=[];autosize=1;strokeColor=none;fillColor=none;" vertex="1" parent="1">
          <mxGeometry x="520" y="790" width="40" height="30" as="geometry" />
        </mxCell>
        <mxCell id="ud0Qa6VdY__SOiLFlOuf-44" value="&lt;font style=&quot;font-size: 10px;&quot;&gt;F0/2&lt;/font&gt;" style="text;html=1;align=center;verticalAlign=middle;resizable=0;points=[];autosize=1;strokeColor=none;fillColor=none;" vertex="1" parent="1">
          <mxGeometry x="505" y="705" width="40" height="30" as="geometry" />
        </mxCell>
        <mxCell id="ud0Qa6VdY__SOiLFlOuf-45" value="&lt;font style=&quot;font-size: 10px;&quot;&gt;F0/3&lt;/font&gt;" style="text;html=1;align=center;verticalAlign=middle;resizable=0;points=[];autosize=1;strokeColor=none;fillColor=none;" vertex="1" parent="1">
          <mxGeometry x="330.75" y="720" width="40" height="30" as="geometry" />
        </mxCell>
        <mxCell id="ud0Qa6VdY__SOiLFlOuf-46" value="&lt;font style=&quot;font-size: 10px;&quot;&gt;F0/4&lt;/font&gt;" style="text;html=1;align=center;verticalAlign=middle;resizable=0;points=[];autosize=1;strokeColor=none;fillColor=none;" vertex="1" parent="1">
          <mxGeometry x="360.5" y="720" width="40" height="30" as="geometry" />
        </mxCell>
        <mxCell id="ud0Qa6VdY__SOiLFlOuf-47" value="&lt;font style=&quot;font-size: 10px;&quot;&gt;F0/3&lt;/font&gt;" style="text;html=1;align=center;verticalAlign=middle;resizable=0;points=[];autosize=1;strokeColor=none;fillColor=none;" vertex="1" parent="1">
          <mxGeometry x="330.75" y="790" width="40" height="30" as="geometry" />
        </mxCell>
        <mxCell id="ud0Qa6VdY__SOiLFlOuf-48" value="&lt;font style=&quot;font-size: 10px;&quot;&gt;F0/4&lt;/font&gt;" style="text;html=1;align=center;verticalAlign=middle;resizable=0;points=[];autosize=1;strokeColor=none;fillColor=none;" vertex="1" parent="1">
          <mxGeometry x="365.5" y="790" width="40" height="30" as="geometry" />
        </mxCell>
        <mxCell id="ud0Qa6VdY__SOiLFlOuf-49" value="&lt;font style=&quot;font-size: 10px;&quot;&gt;F0/3&lt;/font&gt;" style="text;html=1;align=center;verticalAlign=middle;resizable=0;points=[];autosize=1;strokeColor=none;fillColor=none;" vertex="1" parent="1">
          <mxGeometry x="505" y="685" width="40" height="30" as="geometry" />
        </mxCell>
        <mxCell id="ud0Qa6VdY__SOiLFlOuf-50" value="&lt;font style=&quot;font-size: 10px;&quot;&gt;F0/3&lt;/font&gt;" style="text;html=1;align=center;verticalAlign=middle;resizable=0;points=[];autosize=1;strokeColor=none;fillColor=none;" vertex="1" parent="1">
          <mxGeometry x="637.25" y="805" width="40" height="30" as="geometry" />
        </mxCell>
        <mxCell id="ud0Qa6VdY__SOiLFlOuf-51" value="&lt;font style=&quot;font-size: 10px;&quot;&gt;F0/4&lt;/font&gt;" style="text;html=1;align=center;verticalAlign=middle;resizable=0;points=[];autosize=1;strokeColor=none;fillColor=none;" vertex="1" parent="1">
          <mxGeometry x="530" y="665" width="40" height="30" as="geometry" />
        </mxCell>
        <mxCell id="ud0Qa6VdY__SOiLFlOuf-52" value="&lt;font style=&quot;font-size: 10px;&quot;&gt;F0/4&lt;/font&gt;" style="text;html=1;align=center;verticalAlign=middle;resizable=0;points=[];autosize=1;strokeColor=none;fillColor=none;" vertex="1" parent="1">
          <mxGeometry x="670" y="790" width="40" height="30" as="geometry" />
        </mxCell>
        <mxCell id="ud0Qa6VdY__SOiLFlOuf-53" value="&lt;font style=&quot;font-size: 10px;&quot;&gt;F0/5&lt;/font&gt;" style="text;html=1;align=center;verticalAlign=middle;resizable=0;points=[];autosize=1;strokeColor=none;fillColor=none;" vertex="1" parent="1">
          <mxGeometry x="260" y="644" width="40" height="30" as="geometry" />
        </mxCell>
        <mxCell id="ud0Qa6VdY__SOiLFlOuf-54" value="&lt;font style=&quot;font-size: 10px;&quot;&gt;F0/5&lt;/font&gt;" style="text;html=1;align=center;verticalAlign=middle;resizable=0;points=[];autosize=1;strokeColor=none;fillColor=none;" vertex="1" parent="1">
          <mxGeometry x="435" y="644" width="40" height="30" as="geometry" />
        </mxCell>
        <mxCell id="ud0Qa6VdY__SOiLFlOuf-55" value="&lt;font style=&quot;font-size: 10px;&quot;&gt;F0/6&lt;/font&gt;" style="text;html=1;align=center;verticalAlign=middle;resizable=0;points=[];autosize=1;strokeColor=none;fillColor=none;" vertex="1" parent="1">
          <mxGeometry x="275.75" y="655" width="40" height="30" as="geometry" />
        </mxCell>
        <mxCell id="ud0Qa6VdY__SOiLFlOuf-56" value="&lt;font style=&quot;font-size: 10px;&quot;&gt;F0/6&lt;/font&gt;" style="text;html=1;align=center;verticalAlign=middle;resizable=0;points=[];autosize=1;strokeColor=none;fillColor=none;" vertex="1" parent="1">
          <mxGeometry x="423.5" y="655" width="40" height="30" as="geometry" />
        </mxCell>
        <mxCell id="ud0Qa6VdY__SOiLFlOuf-57" value="&lt;font style=&quot;font-size: 10px;&quot;&gt;F0/7&lt;/font&gt;&lt;div&gt;&lt;font style=&quot;font-size: 10px;&quot;&gt;F0/8&lt;/font&gt;&lt;/div&gt;" style="text;html=1;align=center;verticalAlign=middle;resizable=0;points=[];autosize=1;strokeColor=none;fillColor=none;" vertex="1" parent="1">
          <mxGeometry x="306" y="670" width="40" height="40" as="geometry" />
        </mxCell>
        <mxCell id="ud0Qa6VdY__SOiLFlOuf-59" value="&lt;font style=&quot;font-size: 10px;&quot;&gt;F0/9&lt;/font&gt;" style="text;html=1;align=center;verticalAlign=middle;resizable=0;points=[];autosize=1;strokeColor=none;fillColor=none;" vertex="1" parent="1">
          <mxGeometry x="390" y="665" width="40" height="30" as="geometry" />
        </mxCell>
        <mxCell id="ud0Qa6VdY__SOiLFlOuf-62" value="&lt;font style=&quot;font-size: 10px;&quot;&gt;F0/10&lt;/font&gt;" style="text;html=1;align=center;verticalAlign=middle;resizable=0;points=[];autosize=1;strokeColor=none;fillColor=none;" vertex="1" parent="1">
          <mxGeometry x="391" y="685" width="50" height="30" as="geometry" />
        </mxCell>
        <mxCell id="ud0Qa6VdY__SOiLFlOuf-63" value="&lt;font style=&quot;font-size: 10px;&quot;&gt;F0/3&lt;/font&gt;" style="text;html=1;align=center;verticalAlign=middle;resizable=0;points=[];autosize=1;strokeColor=none;fillColor=none;" vertex="1" parent="1">
          <mxGeometry x="117.25" y="547" width="40" height="30" as="geometry" />
        </mxCell>
        <mxCell id="ud0Qa6VdY__SOiLFlOuf-64" value="&lt;font style=&quot;font-size: 10px;&quot;&gt;F0/4&lt;/font&gt;" style="text;html=1;align=center;verticalAlign=middle;resizable=0;points=[];autosize=1;strokeColor=none;fillColor=none;" vertex="1" parent="1">
          <mxGeometry x="60" y="555" width="40" height="30" as="geometry" />
        </mxCell>
        <mxCell id="ud0Qa6VdY__SOiLFlOuf-65" value="&lt;font style=&quot;font-size: 10px;&quot;&gt;F0/5&lt;/font&gt;" style="text;html=1;align=center;verticalAlign=middle;resizable=0;points=[];autosize=1;strokeColor=none;fillColor=none;" vertex="1" parent="1">
          <mxGeometry x="50" y="580" width="40" height="30" as="geometry" />
        </mxCell>
        <mxCell id="ud0Qa6VdY__SOiLFlOuf-66" value="&lt;font style=&quot;font-size: 10px;&quot;&gt;PC - F0/3-F0/12&lt;/font&gt;" style="text;html=1;align=center;verticalAlign=middle;resizable=0;points=[];autosize=1;strokeColor=none;fillColor=none;" vertex="1" parent="1">
          <mxGeometry x="-84.5" y="840" width="100" height="30" as="geometry" />
        </mxCell>
        <mxCell id="ud0Qa6VdY__SOiLFlOuf-67" value="&lt;font style=&quot;font-size: 10px;&quot;&gt;PC - F0/3-F0/12&lt;/font&gt;" style="text;html=1;align=center;verticalAlign=middle;resizable=0;points=[];autosize=1;strokeColor=none;fillColor=none;" vertex="1" parent="1">
          <mxGeometry x="87.25" y="850" width="100" height="30" as="geometry" />
        </mxCell>
        <mxCell id="ud0Qa6VdY__SOiLFlOuf-68" value="&lt;font style=&quot;font-size: 10px;&quot;&gt;PC - F0/5-F0/14&lt;/font&gt;" style="text;html=1;align=center;verticalAlign=middle;resizable=0;points=[];autosize=1;strokeColor=none;fillColor=none;" vertex="1" parent="1">
          <mxGeometry x="260" y="845" width="100" height="30" as="geometry" />
        </mxCell>
        <mxCell id="ud0Qa6VdY__SOiLFlOuf-69" value="&lt;font style=&quot;font-size: 10px;&quot;&gt;PC - F0/3-F0/12&lt;/font&gt;" style="text;html=1;align=center;verticalAlign=middle;resizable=0;points=[];autosize=1;strokeColor=none;fillColor=none;" vertex="1" parent="1">
          <mxGeometry x="445" y="850" width="100" height="30" as="geometry" />
        </mxCell>
        <mxCell id="ud0Qa6VdY__SOiLFlOuf-70" value="&lt;font style=&quot;font-size: 10px;&quot;&gt;PC - F0/5-F0/14&lt;/font&gt;" style="text;html=1;align=center;verticalAlign=middle;resizable=0;points=[];autosize=1;strokeColor=none;fillColor=none;" vertex="1" parent="1">
          <mxGeometry x="745" y="835" width="100" height="30" as="geometry" />
        </mxCell>
      </root>
    </mxGraphModel>
  </diagram>
</mxfile>
